<?xml version="1.0" standalone="no"?>
<!DOCTYPE svg PUBLIC "-//W3C//DTD SVG 20010904//EN"
 "http://www.w3.org/TR/2001/REC-SVG-20010904/DTD/svg10.dtd">
<svg version="1.0" xmlns="http://www.w3.org/2000/svg"
 width="769.000000pt" height="769.000000pt" viewBox="0 0 769.000000 769.000000"
 preserveAspectRatio="xMidYMid meet">
<metadata>
Created by potrace 1.14, written by Peter Selinger 2001-2017
</metadata>
<g transform="translate(0.000000,769.000000) scale(0.100000,-0.100000)"
fill="#000000" stroke="none">
<path d="M0 3845 l0 -3845 3845 0 3845 0 0 3845 0 3845 -3845 0 -3845 0 0
-3845z m3707 3309 c8 -21 -13 -42 -28 -27 -13 13 -5 43 11 43 6 0 13 -7 17
-16z m90 0 c8 -22 -18 -37 -36 -20 -7 8 -10 19 -7 25 10 16 36 13 43 -5z m91
-1 c5 -17 -26 -29 -40 -15 -6 6 -7 15 -3 22 9 14 37 9 43 -7z m85 3 c8 -19
-15 -37 -32 -26 -17 10 -7 40 13 40 7 0 16 -6 19 -14z m-353 -16 c0 -13 -7
-20 -20 -20 -13 0 -20 7 -20 20 0 13 7 20 20 20 13 0 20 -7 20 -20z m440 -1
c0 -25 -33 -22 -38 4 -2 12 3 17 17 17 15 0 21 -6 21 -21z m87 5 c8 -21 -13
-42 -28 -27 -13 13 -5 43 11 43 6 0 13 -7 17 -16z m-612 -14 c0 -22 -39 -19
-43 3 -3 15 1 18 20 15 12 -2 23 -10 23 -18z m702 4 c8 -22 -18 -37 -36 -20
-7 8 -10 19 -7 25 10 16 36 13 43 -5z m-789 -11 c5 -17 -26 -29 -40 -15 -6 6
-7 15 -3 22 9 14 37 9 43 -7z m878 6 c3 -6 0 -17 -7 -25 -18 -17 -44 -2 -36
20 7 18 33 21 43 5z m-968 -22 c2 -12 -3 -17 -17 -17 -15 0 -21 6 -21 21 0 25
33 22 38 -4z m1049 7 c8 -21 -13 -42 -28 -27 -13 13 -5 43 11 43 6 0 13 -7 17
-16z m-1140 -10 c8 -21 -13 -42 -28 -27 -13 13 -5 43 11 43 6 0 13 -7 17 -16z
m1230 -10 c7 -20 -17 -37 -34 -23 -15 13 -6 39 13 39 8 0 17 -7 21 -16z
m-1309 -11 c5 -17 -26 -29 -40 -15 -6 6 -7 15 -3 22 9 14 37 9 43 -7z m1400
-10 c5 -17 -26 -29 -40 -15 -6 6 -7 15 -3 22 9 14 37 9 43 -7z m-1490 -16 c2
-12 -3 -17 -17 -17 -15 0 -21 6 -21 21 0 25 33 22 38 -4z m1572 -7 c0 -13 -7
-20 -20 -20 -13 0 -20 7 -20 20 0 13 7 20 20 20 13 0 20 -7 20 -20z m-1654 -1
c3 -6 0 -17 -7 -25 -18 -17 -44 -2 -36 20 7 18 33 21 43 5z m1739 -9 c4 -6 1
-18 -6 -26 -11 -13 -14 -13 -27 0 -8 8 -11 19 -8 25 9 14 33 14 41 1z m-1830
-26 c0 -10 -8 -20 -17 -22 -18 -3 -26 27 -11 42 12 11 28 0 28 -20z m1913 -11
c-5 -26 -38 -29 -38 -4 0 15 6 21 21 21 14 0 19 -5 17 -17z m-1992 -4 c3 -6 0
-17 -7 -25 -18 -17 -44 -2 -36 20 7 18 33 21 43 5z m2073 -13 c9 -10 8 -16 -4
-26 -19 -16 -41 1 -32 24 8 20 21 20 36 2z m-2159 -26 c0 -13 -7 -20 -20 -20
-13 0 -20 7 -20 20 0 13 7 20 20 20 13 0 20 -7 20 -20z m2247 -6 c3 -8 1 -20
-5 -26 -15 -15 -43 8 -35 28 7 19 32 18 40 -2z m-2329 -27 c2 -12 -3 -17 -17
-17 -15 0 -21 6 -21 21 0 25 33 22 38 -4z m2409 -3 c8 -21 -13 -42 -28 -27
-13 13 -5 43 11 43 6 0 13 -7 17 -16z m-2490 -20 c3 -8 1 -20 -5 -26 -15 -15
-43 8 -35 28 7 19 32 18 40 -2z m2573 -24 c0 -13 -7 -20 -20 -20 -13 0 -20 7
-20 20 0 13 7 20 20 20 13 0 20 -7 20 -20z m-2652 -17 c5 -17 -26 -29 -40 -15
-6 6 -7 15 -3 22 9 14 37 9 43 -7z m2729 -9 c8 -21 -13 -42 -28 -27 -13 13 -5
43 11 43 6 0 13 -7 17 -16z m-2807 -30 c0 -19 -28 -30 -42 -16 -8 8 -8 15 1
26 14 17 41 10 41 -10z m2887 -10 c8 -21 -13 -42 -28 -27 -13 13 -5 43 11 43
6 0 13 -7 17 -16z m-2969 -27 c4 -22 -27 -35 -38 -16 -10 15 7 42 24 36 6 -2
12 -11 14 -20z m3049 -13 c8 -21 -13 -42 -28 -27 -13 13 -5 43 11 43 6 0 13
-7 17 -16z m-3132 -30 c0 -10 -8 -20 -17 -22 -18 -3 -26 27 -11 42 12 11 28 0
28 -20z m3215 -20 c0 -19 -28 -30 -42 -16 -8 8 -8 15 1 26 14 17 41 10 41 -10z
m-3290 -24 c0 -13 -7 -20 -20 -20 -19 0 -27 20 -13 33 13 14 33 6 33 -13z
m3360 -20 c0 -13 -7 -20 -20 -20 -13 0 -20 7 -20 20 0 13 7 20 20 20 13 0 20
-7 20 -20z m-3432 -23 c4 -22 -27 -35 -38 -16 -10 15 7 42 24 36 6 -2 12 -11
14 -20z m3512 -23 c0 -20 -30 -30 -40 -13 -11 17 7 40 26 32 8 -3 14 -12 14
-19z m-3587 -18 c8 -20 -20 -43 -35 -28 -14 14 -3 42 16 42 7 0 16 -6 19 -14z
m3654 -22 c8 -21 -13 -42 -28 -27 -13 13 -5 43 11 43 6 0 13 -7 17 -16z
m-3730 -30 c7 -18 -17 -38 -31 -24 -11 11 -1 40 14 40 6 0 13 -7 17 -16z
m3800 -15 c14 -14 6 -39 -12 -39 -18 0 -28 17 -21 35 6 18 18 19 33 4z m-3870
-35 c9 -23 -13 -40 -32 -24 -12 10 -13 16 -4 26 15 18 28 18 36 -2z m3949 -43
c-10 -16 -36 -13 -43 5 -8 22 18 37 36 20 7 -8 10 -19 7 -25z m-4016 -17 c0
-20 -30 -30 -40 -13 -11 17 7 40 26 32 8 -3 14 -12 14 -19z m4088 -21 c5 -17
-26 -29 -40 -15 -6 6 -7 15 -3 22 9 14 37 9 43 -7z m-4161 -29 c6 -16 -15 -37
-29 -28 -4 3 -8 14 -8 25 0 23 28 26 37 3z m3475 -34 c441 -147 815 -696 1018
-1495 158 -617 123 -1355 -91 -1983 -54 -157 -172 -397 -250 -506 -121 -169
-239 -270 -397 -338 -73 -31 -84 -33 -193 -33 -113 0 -117 1 -190 37 -262 130
-480 485 -689 1123 -29 88 -53 161 -54 162 -1 1 -1 -191 -1 -425 0 -339 -4
-463 -18 -602 -35 -340 -94 -558 -169 -627 -70 -65 -299 -88 -428 -44 -192 66
-388 253 -482 460 -70 153 -102 278 -253 991 -153 725 -274 1254 -297 1298 -9
18 -18 22 -36 17 -12 -3 -134 -58 -270 -122 -651 -305 -902 -359 -1172 -250
-131 53 -256 150 -316 244 -19 28 -34 53 -34 55 0 2 38 -33 84 -77 46 -44 102
-90 124 -103 l41 -22 -84 145 c-117 201 -111 189 -85 175 32 -17 56 -21 151
-27 71 -4 102 -1 185 20 236 62 494 159 789 299 292 139 461 213 565 248 88
30 101 32 195 27 127 -6 229 -41 347 -120 155 -103 242 -237 299 -457 11 -41
107 -511 215 -1045 107 -533 208 -1025 224 -1093 32 -134 75 -237 139 -330 43
-64 65 -82 101 -82 26 0 36 26 55 144 58 369 43 1281 -35 2033 -26 251 -43
344 -80 439 -16 43 -30 93 -30 110 0 68 99 110 241 102 69 -4 91 -11 173 -51
161 -80 322 -256 392 -428 14 -34 73 -254 130 -488 161 -654 193 -751 399
-1185 63 -134 115 -252 115 -261 0 -29 33 -12 57 30 115 204 180 772 154 1360
-33 774 -136 1245 -373 1719 -119 238 -236 410 -464 681 -134 160 -154 189
-154 227 0 89 249 116 452 48z m748 -1 c0 -23 -28 -26 -37 -3 -6 16 15 37 29
28 4 -3 8 -14 8 -25z m-4290 -29 c0 -13 -7 -20 -20 -20 -13 0 -20 7 -20 20 0
13 7 20 20 20 13 0 20 -7 20 -20z m4357 -16 c8 -21 -13 -42 -28 -27 -13 13 -5
43 11 43 6 0 13 -7 17 -16z m-4421 -53 c-9 -14 -33 -14 -41 -1 -4 6 -1 18 6
26 11 13 14 13 27 0 8 -8 11 -19 8 -25z m4483 -5 c9 -10 8 -16 -4 -26 -19 -16
-41 1 -32 24 8 20 21 20 36 2z m-4549 -47 c0 -25 -33 -22 -38 4 -2 12 3 17 17
17 15 0 21 -6 21 -21z m4617 -15 c9 -23 -13 -40 -32 -24 -12 10 -13 16 -4 26
15 18 28 18 36 -2z m-4677 -44 c0 -13 -7 -20 -20 -20 -13 0 -20 7 -20 20 0 13
7 20 20 20 13 0 20 -7 20 -20z m4738 -27 c-5 -26 -38 -29 -38 -4 0 15 6 21 21
21 14 0 19 -5 17 -17z m-4801 -29 c9 -23 -13 -40 -32 -24 -12 10 -13 16 -4 26
15 18 28 18 36 -2z m4858 -39 c0 -28 -29 -25 -33 3 -3 19 0 23 15 20 10 -2 18
-12 18 -23z m-4917 -32 c-5 -26 -38 -29 -38 -4 0 15 6 21 21 21 14 0 19 -5 17
-17z m4982 -28 c0 -21 -30 -31 -40 -14 -11 17 -3 29 21 29 10 0 19 -7 19 -15z
m-5043 -31 c8 -21 -13 -42 -28 -27 -13 13 -5 43 11 43 6 0 13 -7 17 -16z
m5093 -29 c13 -16 6 -35 -15 -35 -18 0 -28 17 -21 35 7 19 20 19 36 0z m-5143
-41 c8 -22 -18 -37 -36 -20 -7 8 -10 19 -7 25 10 16 36 13 43 -5z m5200 -30
c8 -21 -13 -42 -28 -27 -13 13 -5 43 11 43 6 0 13 -7 17 -16z m-5260 -40 c8
-21 -13 -42 -28 -27 -13 13 -5 43 11 43 6 0 13 -7 17 -16z m5310 -30 c8 -21
-13 -42 -28 -27 -13 13 -5 43 11 43 6 0 13 -7 17 -16z m-5360 -40 c8 -21 -13
-42 -28 -27 -13 13 -5 43 11 43 6 0 13 -7 17 -16z m5416 -50 c-3 -8 -12 -14
-19 -14 -20 0 -30 30 -13 40 17 11 40 -7 32 -26z m-5468 -30 c0 -10 -8 -20
-17 -22 -18 -3 -26 27 -11 42 12 11 28 0 28 -20z m5515 -34 c0 -13 -7 -20 -20
-20 -19 0 -27 20 -13 33 13 14 33 6 33 -13z m-5560 -40 c0 -13 -7 -20 -20 -20
-19 0 -27 20 -13 33 13 14 33 6 33 -13z m5607 -26 c8 -21 -13 -42 -28 -27 -13
13 -5 43 11 43 6 0 13 -7 17 -16z m-5647 -50 c0 -19 -28 -30 -42 -16 -8 8 -8
15 1 26 14 17 41 10 41 -10z m5698 -31 c5 -17 -26 -29 -40 -15 -6 6 -7 15 -3
22 9 14 37 9 43 -7z m-5748 -42 c0 -11 -5 -23 -11 -27 -15 -9 -33 12 -26 30 9
23 37 20 37 -3z m5790 -37 c0 -20 -30 -30 -40 -13 -11 17 7 40 26 32 8 -3 14
-12 14 -19z m-5830 -44 c0 -13 -7 -20 -20 -20 -13 0 -20 7 -20 20 0 13 7 20
20 20 13 0 20 -7 20 -20z m5867 -26 c8 -21 -13 -42 -28 -27 -13 13 -5 43 11
43 6 0 13 -7 17 -16z m-5907 -54 c0 -13 -7 -20 -20 -20 -13 0 -20 7 -20 20 0
13 7 20 20 20 13 0 20 -7 20 -20z m5947 -26 c9 -23 -13 -40 -32 -24 -12 10
-13 16 -4 26 15 18 28 18 36 -2z m-5987 -55 c0 -14 -5 -19 -17 -17 -26 5 -29
38 -4 38 15 0 21 -6 21 -21z m6026 -20 c10 -17 -23 -46 -37 -32 -7 7 -9 19 -6
27 7 18 33 21 43 5z m-6058 -56 c5 -17 -26 -29 -40 -15 -6 6 -7 15 -3 22 9 14
37 9 43 -7z m6089 -29 c8 -21 -13 -42 -28 -27 -13 13 -5 43 11 43 6 0 13 -7
17 -16z m-6127 -54 c0 -13 -7 -20 -20 -20 -19 0 -27 20 -13 33 13 14 33 6 33
-13z m6158 -38 c2 -14 -2 -22 -12 -22 -19 0 -29 17 -22 36 8 22 30 12 34 -14z
m-6188 -41 c0 -11 -4 -22 -8 -25 -14 -9 -35 12 -29 28 9 23 37 20 37 -3z
m6220 -42 c0 -25 -33 -22 -38 4 -2 12 3 17 17 17 15 0 21 -6 21 -21z m-6253
-35 c8 -21 -13 -42 -28 -27 -13 13 -5 43 11 43 6 0 13 -7 17 -16z m6280 -40
c8 -21 -13 -42 -28 -27 -13 13 -5 43 11 43 6 0 13 -7 17 -16z m-6299 -51 c5
-17 -26 -29 -40 -15 -6 6 -7 15 -3 22 9 14 37 9 43 -7z m6328 -52 c-9 -14 -33
-14 -41 -1 -4 6 -1 18 6 26 11 13 14 13 27 0 8 -8 11 -19 8 -25z m-6359 -27
c8 -21 -13 -42 -28 -27 -13 13 -5 43 11 43 6 0 13 -7 17 -16z m6378 -49 c0
-28 -29 -25 -33 3 -3 19 0 23 15 20 10 -2 18 -12 18 -23z m-6397 -42 c-5 -26
-38 -29 -38 -4 0 15 6 21 21 21 14 0 19 -5 17 -17z m6422 -44 c0 -25 -33 -22
-38 4 -2 12 3 17 17 17 15 0 21 -6 21 -21z m-6443 -35 c8 -21 -13 -42 -28 -27
-13 13 -5 43 11 43 6 0 13 -7 17 -16z m6460 -40 c8 -21 -13 -42 -28 -27 -13
13 -5 43 11 43 6 0 13 -7 17 -16z m-6477 -54 c0 -13 -7 -20 -20 -20 -19 0 -27
20 -13 33 13 14 33 6 33 -13z m6498 -37 c5 -17 -26 -29 -40 -15 -6 6 -7 15 -3
22 9 14 37 9 43 -7z m-6512 -62 c-9 -14 -33 -14 -41 -1 -4 6 -1 18 6 26 11 13
14 13 27 0 8 -8 11 -19 8 -25z m6524 -32 c0 -23 -28 -26 -37 -3 -6 16 15 37
29 28 4 -3 8 -14 8 -25z m-6541 -33 c9 -10 8 -16 -4 -26 -19 -16 -41 1 -32 24
8 20 21 20 36 2z m6550 -40 c9 -10 8 -16 -4 -26 -19 -16 -41 1 -32 24 8 20 21
20 36 2z m-6559 -55 c0 -11 -5 -23 -11 -27 -15 -9 -33 12 -26 30 9 23 37 20
37 -3z m6573 -35 c8 -19 -15 -37 -32 -26 -17 10 -7 40 13 40 7 0 16 -6 19 -14z
m-6575 -53 c5 -17 -26 -29 -40 -15 -6 6 -7 15 -3 22 9 14 37 9 43 -7z m6582
-43 c0 -13 -7 -20 -20 -20 -13 0 -20 7 -20 20 0 13 7 20 20 20 13 0 20 -7 20
-20z m-6590 -45 c0 -21 -30 -31 -40 -14 -11 17 -3 29 21 29 10 0 19 -7 19 -15z
m6596 -54 c-9 -14 -33 -14 -41 -1 -4 6 -1 18 6 26 11 13 14 13 27 0 8 -8 11
-19 8 -25z m-6603 -47 c-3 -8 -12 -14 -19 -14 -20 0 -30 30 -13 40 17 11 40
-7 32 -26z m6605 -27 c4 -22 -27 -35 -38 -16 -10 15 7 42 24 36 6 -2 12 -11
14 -20z m-6611 -43 c8 -21 -13 -42 -28 -27 -13 13 -5 43 11 43 6 0 13 -7 17
-16z m6610 -40 c8 -21 -13 -42 -28 -27 -13 13 -5 43 11 43 6 0 13 -7 17 -16z
m-6604 -48 c8 -19 -15 -37 -32 -26 -17 10 -7 40 13 40 7 0 16 -6 19 -14z
m6604 -42 c8 -22 -18 -37 -36 -20 -7 8 -10 19 -7 25 10 16 36 13 43 -5z
m-6599 -51 c5 -17 -26 -29 -40 -15 -6 6 -7 15 -3 22 9 14 37 9 43 -7z m6592
-43 c0 -13 -7 -20 -20 -20 -19 0 -27 20 -13 33 13 14 33 6 33 -13z m-6590 -51
c0 -25 -33 -22 -38 4 -2 12 3 17 17 17 15 0 21 -6 21 -21z m6588 -36 c5 -17
-26 -29 -40 -15 -6 6 -7 15 -3 22 9 14 37 9 43 -7z m-6581 -39 c8 -21 -13 -42
-28 -27 -13 13 -5 43 11 43 6 0 13 -7 17 -16z m6571 -47 c4 -22 -27 -35 -38
-16 -10 15 7 42 24 36 6 -2 12 -11 14 -20z m-6561 -43 c8 -21 -13 -42 -28 -27
-13 13 -5 43 11 43 6 0 13 -7 17 -16z m6548 -34 c4 -6 1 -18 -6 -26 -11 -13
-14 -13 -27 0 -8 8 -11 19 -8 25 9 14 33 14 41 1z m-6535 -60 c0 -13 -7 -20
-20 -20 -19 0 -27 20 -13 33 13 14 33 6 33 -13z m6520 -40 c0 -13 -7 -20 -20
-20 -19 0 -27 20 -13 33 13 14 33 6 33 -13z m-6500 -45 c0 -21 -30 -31 -40
-14 -11 17 -3 29 21 29 10 0 19 -7 19 -15z m6490 -41 c0 -19 -28 -30 -42 -16
-8 8 -8 15 1 26 14 17 41 10 41 -10z m-6477 -38 c8 -20 -20 -43 -35 -28 -14
14 -3 42 16 42 7 0 16 -6 19 -14z m6454 -42 c3 -8 1 -20 -5 -26 -15 -15 -43 8
-35 28 7 19 32 18 40 -2z m-6429 -51 c5 -17 -26 -29 -40 -15 -6 6 -7 15 -3 22
9 14 37 9 43 -7z m6412 -38 c0 -9 -7 -18 -16 -22 -18 -7 -39 11 -30 26 11 17
46 13 46 -4z m-6394 -64 c-9 -14 -33 -14 -41 -1 -4 6 -1 18 6 26 11 13 14 13
27 0 8 -8 11 -19 8 -25z m6370 -12 c10 -17 -23 -46 -37 -32 -7 7 -9 19 -6 27
7 18 33 21 43 5z m-6346 -59 c0 -13 -7 -20 -20 -20 -13 0 -20 7 -20 20 0 13 7
20 20 20 13 0 20 -7 20 -20z m6318 -37 c-5 -26 -38 -29 -38 -4 0 15 6 21 21
21 14 0 19 -5 17 -17z m-6293 -48 c0 -11 -7 -21 -16 -23 -18 -3 -33 23 -23 39
10 17 39 5 39 -16z m6265 -34 c0 -11 -4 -22 -8 -25 -14 -9 -35 12 -29 28 9 23
37 20 37 -3z m-6232 -48 c5 -17 -26 -29 -40 -15 -6 6 -7 15 -3 22 9 14 37 9
43 -7z m6201 -27 c9 -10 8 -16 -4 -26 -19 -16 -41 1 -32 24 8 20 21 20 36 2z
m-6171 -53 c5 -17 -26 -29 -40 -15 -6 6 -7 15 -3 22 9 14 37 9 43 -7z m6142
-44 c0 -23 -28 -26 -37 -3 -6 16 15 37 29 28 4 -3 8 -14 8 -25z m-6113 -35 c6
-16 -15 -37 -29 -28 -4 3 -8 14 -8 25 0 23 28 26 37 3z m6081 -41 c5 -17 -26
-29 -40 -15 -6 6 -7 15 -3 22 9 14 37 9 43 -7z m-6045 -37 c8 -19 -15 -37 -32
-26 -17 10 -7 40 13 40 7 0 16 -6 19 -14z m6007 -46 c0 -13 -7 -20 -20 -20
-13 0 -20 7 -20 20 0 13 7 20 20 20 13 0 20 -7 20 -20z m-5973 -36 c8 -21 -13
-42 -28 -27 -13 13 -5 43 11 43 6 0 13 -7 17 -16z m5933 -45 c0 -25 -33 -22
-38 4 -2 12 3 17 17 17 15 0 21 -6 21 -21z m-5890 -39 c0 -13 -7 -20 -20 -20
-13 0 -20 7 -20 20 0 13 7 20 20 20 13 0 20 -7 20 -20z m5848 -38 c2 -14 -2
-22 -12 -22 -19 0 -29 17 -22 36 8 22 30 12 34 -14z m-5808 -43 c0 -25 -33
-22 -38 4 -2 12 3 17 17 17 15 0 21 -6 21 -21z m5767 -25 c8 -21 -13 -42 -28
-27 -13 13 -5 43 11 43 6 0 13 -7 17 -16z m-5721 -63 c-10 -16 -36 -13 -43 5
-8 22 18 37 36 20 7 -8 10 -19 7 -25z m5682 -18 c5 -17 -26 -29 -40 -15 -6 6
-7 15 -3 22 9 14 37 9 43 -7z m-5638 -43 c0 -13 -7 -20 -20 -20 -13 0 -20 7
-20 20 0 13 7 20 20 20 13 0 20 -7 20 -20z m5587 -26 c9 -23 -13 -40 -32 -24
-12 10 -13 16 -4 26 15 18 28 18 36 -2z m-5540 -40 c8 -21 -13 -42 -28 -27
-13 13 -5 43 11 43 6 0 13 -7 17 -16z m5491 -41 c-5 -26 -38 -29 -38 -4 0 15
6 21 21 21 14 0 19 -5 17 -17z m-5440 -40 c-5 -26 -38 -29 -38 -4 0 15 6 21
21 21 14 0 19 -5 17 -17z m5392 -33 c0 -13 -7 -20 -20 -20 -13 0 -20 7 -20 20
0 13 7 20 20 20 13 0 20 -7 20 -20z m-5340 -40 c0 -13 -7 -20 -20 -20 -13 0
-20 7 -20 20 0 13 7 20 20 20 13 0 20 -7 20 -20z m5288 -27 c5 -17 -26 -29
-40 -15 -6 6 -7 15 -3 22 9 14 37 9 43 -7z m-5230 -40 c5 -17 -26 -29 -40 -15
-6 6 -7 15 -3 22 9 14 37 9 43 -7z m5175 -27 c7 -18 -1 -26 -25 -26 -18 0 -25
20 -11 33 11 12 31 8 36 -7z m-5125 -43 c-5 -26 -38 -29 -38 -4 0 15 6 21 21
21 14 0 19 -5 17 -17z m5070 -30 c5 -17 -26 -29 -40 -15 -6 6 -7 15 -3 22 9
14 37 9 43 -7z m-5010 -42 c-2 -9 -11 -17 -21 -19 -21 -4 -35 27 -17 38 19 12
42 0 38 -19z m4949 -17 c8 -21 -13 -42 -28 -27 -13 13 -5 43 11 43 6 0 13 -7
17 -16z m-4889 -41 c5 -17 -26 -29 -40 -15 -6 6 -7 15 -3 22 9 14 37 9 43 -7z
m4832 -33 c0 -13 -7 -20 -20 -20 -13 0 -20 7 -20 20 0 13 7 20 20 20 13 0 20
-7 20 -20z m-4780 -25 c13 -16 6 -35 -15 -35 -18 0 -28 17 -21 35 7 19 20 19
36 0z m4717 -31 c9 -23 -13 -40 -32 -24 -12 10 -13 16 -4 26 15 18 28 18 36
-2z m-4647 -40 c0 -20 -30 -30 -40 -13 -11 17 7 40 26 32 8 -3 14 -12 14 -19z
m4588 -27 c4 -20 -25 -34 -40 -19 -15 15 -1 44 19 40 10 -2 19 -11 21 -21z
m-4528 -38 c0 -25 -33 -22 -38 4 -2 12 3 17 17 17 15 0 21 -6 21 -21z m4457
-15 c8 -21 -13 -42 -28 -27 -13 13 -5 43 11 43 6 0 13 -7 17 -16z m-4391 -53
c-9 -14 -33 -14 -41 -1 -4 6 -1 18 6 26 11 13 14 13 27 0 8 -8 11 -19 8 -25z
m4330 -2 c3 -6 0 -17 -7 -25 -18 -17 -44 -2 -36 20 7 18 33 21 43 5z m-4267
-33 c9 -10 8 -16 -4 -26 -19 -16 -41 1 -32 24 8 20 21 20 36 2z m4199 -33 c5
-17 -26 -29 -40 -15 -6 6 -7 15 -3 22 9 14 37 9 43 -7z m-4128 -33 c0 -13 -7
-20 -20 -20 -13 0 -20 7 -20 20 0 13 7 20 20 20 13 0 20 -7 20 -20z m4057 -16
c9 -23 -13 -40 -32 -24 -12 10 -13 16 -4 26 15 18 28 18 36 -2z m-3990 -30 c8
-21 -13 -42 -28 -27 -13 13 -5 43 11 43 6 0 13 -7 17 -16z m3923 -30 c0 -19
-28 -30 -42 -16 -8 8 -8 15 1 26 14 17 41 10 41 -10z m-3853 -15 c14 -14 6
-39 -12 -39 -18 0 -28 17 -21 35 6 18 18 19 33 4z m3781 -36 c5 -17 -26 -29
-40 -15 -6 6 -7 15 -3 22 9 14 37 9 43 -7z m-3700 -26 c4 -20 -25 -34 -40 -19
-15 15 -1 44 19 40 10 -2 19 -11 21 -21z m3622 -28 c0 -23 -28 -26 -37 -3 -6
16 15 37 29 28 4 -3 8 -14 8 -25z m-3553 -15 c8 -21 -13 -42 -28 -27 -13 13
-5 43 11 43 6 0 13 -7 17 -16z m3480 -20 c9 -23 -13 -40 -32 -24 -12 10 -13
16 -4 26 15 18 28 18 36 -2z m-3399 -31 c5 -17 -26 -29 -40 -15 -6 6 -7 15 -3
22 9 14 37 9 43 -7z m3322 -23 c0 -13 -7 -20 -20 -20 -13 0 -20 7 -20 20 0 13
7 20 20 20 13 0 20 -7 20 -20z m-3253 -16 c8 -21 -13 -42 -28 -27 -13 13 -5
43 11 43 6 0 13 -7 17 -16z m3178 -14 c4 -6 1 -18 -6 -26 -11 -13 -14 -13 -27
0 -8 8 -11 19 -8 25 9 14 33 14 41 1z m-3098 -26 c8 -21 -13 -42 -28 -27 -13
13 -5 43 11 43 6 0 13 -7 17 -16z m3020 -20 c8 -22 -18 -37 -36 -20 -7 8 -10
19 -7 25 10 16 36 13 43 -5z m-2940 -20 c9 -23 -13 -40 -32 -24 -12 10 -13 16
-4 26 15 18 28 18 36 -2z m2861 -27 c2 -11 -3 -17 -16 -17 -24 0 -32 8 -25 26
7 20 37 13 41 -9z m-2781 -13 c8 -22 -18 -37 -36 -20 -7 8 -10 19 -7 25 10 16
36 13 43 -5z m2703 -19 c0 -9 -7 -18 -16 -22 -18 -7 -39 11 -30 26 11 17 46
13 46 -4z m-2620 -21 c0 -20 -30 -30 -40 -13 -11 17 7 40 26 32 8 -3 14 -12
14 -19z m2537 -10 c8 -22 -18 -37 -36 -20 -7 8 -10 19 -7 25 10 16 36 13 43
-5z m-2459 -27 c2 -12 -3 -17 -17 -17 -15 0 -21 6 -21 21 0 25 33 22 38 -4z
m2369 2 c14 -14 6 -39 -12 -39 -18 0 -28 17 -21 35 6 18 18 19 33 4z m-2287
-29 c0 -13 -7 -20 -20 -20 -19 0 -27 20 -13 33 13 14 33 6 33 -13z m2207 -6
c8 -21 -13 -42 -28 -27 -13 13 -5 43 11 43 6 0 13 -7 17 -16z m-2119 -21 c5
-17 -26 -29 -40 -15 -6 6 -7 15 -3 22 9 14 37 9 43 -7z m2039 -9 c7 -20 -17
-37 -34 -23 -15 13 -6 39 13 39 8 0 17 -7 21 -16z m-1959 -23 c-5 -24 -38 -27
-38 -3 0 10 3 21 6 25 11 11 35 -5 32 -22z m1880 -8 c5 -17 -26 -29 -40 -15
-6 6 -7 15 -3 22 9 14 37 9 43 -7z m-1793 -13 c0 -8 -10 -16 -22 -18 -22 -3
-32 16 -16 32 12 11 38 2 38 -14z m1703 -13 c2 -12 -3 -17 -17 -17 -15 0 -21
6 -21 21 0 25 33 22 38 -4z m-1621 -3 c8 -21 -13 -42 -28 -27 -13 13 -5 43 11
43 6 0 13 -7 17 -16z m1536 -8 c8 -19 -15 -37 -32 -26 -17 10 -7 40 13 40 7 0
16 -6 19 -14z m-1447 -7 c3 -6 0 -17 -7 -25 -18 -17 -44 -2 -36 20 7 18 33 21
43 5z m1362 -22 c2 -11 -3 -17 -17 -17 -23 0 -35 15 -26 31 10 15 39 6 43 -14z
m-1278 -7 c0 -13 -7 -20 -20 -20 -13 0 -20 7 -20 20 0 13 7 20 20 20 13 0 20
-7 20 -20z m88 -13 c4 -22 -27 -35 -38 -16 -10 15 7 42 24 36 6 -2 12 -11 14
-20z m1102 3 c0 -13 -7 -20 -20 -20 -13 0 -20 7 -20 20 0 13 7 20 20 20 13 0
20 -7 20 -20z m-84 -1 c3 -6 0 -17 -7 -25 -18 -17 -44 -2 -36 20 7 18 33 21
43 5z m-928 -16 c5 -17 -26 -29 -40 -15 -6 6 -7 15 -3 22 9 14 37 9 43 -7z
m839 1 c8 -22 -18 -37 -36 -20 -7 8 -10 19 -7 25 10 16 36 13 43 -5z m-749
-11 c5 -17 -26 -29 -40 -15 -6 6 -7 15 -3 22 9 14 37 9 43 -7z m659 1 c3 -8 1
-20 -5 -26 -15 -15 -43 8 -35 28 7 19 32 18 40 -2z m-577 -15 c0 -14 -5 -19
-17 -17 -26 5 -29 38 -4 38 15 0 21 -6 21 -21z m87 5 c8 -21 -13 -42 -28 -27
-13 13 -5 43 11 43 6 0 13 -7 17 -16z m93 -10 c0 -19 -28 -30 -42 -16 -8 8 -8
15 1 26 14 17 41 10 41 -10z m136 -12 c-10 -17 -91 -10 -91 8 0 10 10 15 27
15 14 0 30 3 34 8 10 10 38 -18 30 -31z m83 24 c9 -10 8 -16 -4 -26 -19 -16
-41 1 -32 24 8 20 21 20 36 2z m91 -6 c0 -13 -7 -20 -20 -20 -13 0 -20 7 -20
20 0 13 7 20 20 20 13 0 20 -7 20 -20z"/>
</g>
</svg>
